<svg id="Groupe_9" data-name="Groupe 9" xmlns="http://www.w3.org/2000/svg" xmlns:xlink="http://www.w3.org/1999/xlink" width="42.247" height="44.655" viewBox="0 0 42.247 44.655">
  <defs>
    <clipPath id="clip-path">
      <rect id="Rectangle_28" data-name="Rectangle 28" width="42.247" height="44.655" fill="gold"/>
    </clipPath>
  </defs>
  <g id="Groupe_7" data-name="Groupe 7" clip-path="url(#clip-path)">
    <path id="Tracé_17" data-name="Tracé 17" d="M11.151,21.171a7.26,7.26,0,0,1-4.7.072,8.957,8.957,0,0,1-5.906-6A8.931,8.931,0,0,1,1.3,7.48,7.2,7.2,0,0,1,7.223,3.858c.112-.009.224-.025.407-.047,0-.693-.008-1.373,0-2.053A1.553,1.553,0,0,1,9.407,0H32.862a1.555,1.555,0,0,1,1.783,1.75c.01.68,0,1.361,0,2.055.494.061.929.081,1.349.173a7.392,7.392,0,0,1,6.023,6.194,9.326,9.326,0,0,1-3.9,9.938,7.4,7.4,0,0,1-6.749,1.139l-.251-.072c-.2.369-.384.74-.585,1.1a16.406,16.406,0,0,1-4.081,5.05,1.12,1.12,0,0,1-.241.186c-.743.3-.829.876-.813,1.607.047,2.179.017,4.359.017,6.539v.53h.493c1,0,2.006-.013,3.008,0a2.607,2.607,0,0,1,2.695,2.527,34.183,34.183,0,0,1-.007,3.484,2.556,2.556,0,0,1-2.121,2.383,3.6,3.6,0,0,1-.693.062q-7.651.005-15.3,0a2.668,2.668,0,0,1-2.762-2.011A2.574,2.574,0,0,1,10.641,42c-.009-1.046-.047-2.094,0-3.138a2.655,2.655,0,0,1,2.836-2.667c1.075-.006,2.151,0,3.226-.005a.8.8,0,0,0,.119-.024,3.14,3.14,0,0,0,.031-.319c0-2.485.006-4.97-.009-7.455A.676.676,0,0,0,16.6,27.9a15.548,15.548,0,0,1-4.812-5.54c-.212-.379-.41-.766-.638-1.192M31.722,3.014H10.585c0,.249,0,.466,0,.683a46.078,46.078,0,0,0,.618,7.459,30.1,30.1,0,0,0,3.4,10.089,12.02,12.02,0,0,0,3.516,4.042,4.841,4.841,0,0,0,5.256.469,8.6,8.6,0,0,0,2.647-2.163,20.933,20.933,0,0,0,3.824-7.321,38.476,38.476,0,0,0,1.738-9.525c.078-1.23.094-2.464.139-3.733M7.695,6.865A4.334,4.334,0,0,0,3.8,9.087a6.643,6.643,0,0,0,3.181,9.178,4.277,4.277,0,0,0,3.009.117,42.22,42.22,0,0,1-2.3-11.516m26.885.014a42.128,42.128,0,0,1-2.294,11.509,4.316,4.316,0,0,0,3.147-.186,6.69,6.69,0,0,0,3.482-8.189,4.444,4.444,0,0,0-4.334-3.134M28.626,39.212H13.652v2.424H28.626Zm-8.752-3.052H22.4V29.265H19.873Z" transform="translate(0 0)" fill="gold"/>
  </g>
</svg>
