<svg id="Groupe_8" data-name="Groupe 8" xmlns="http://www.w3.org/2000/svg" xmlns:xlink="http://www.w3.org/1999/xlink" width="21.36" height="22.578" viewBox="0 0 21.36 22.578">
  <defs>
    <clipPath id="clip-path">
      <rect id="Rectangle_28" data-name="Rectangle 28" width="21.36" height="22.578" fill="#614e1a"/>
    </clipPath>
  </defs>
  <g id="Groupe_7" data-name="Groupe 7" clip-path="url(#clip-path)">
    <path id="Tracé_17" data-name="Tracé 17" d="M5.638,10.7a3.671,3.671,0,0,1-2.375.036A4.529,4.529,0,0,1,.277,7.706,4.515,4.515,0,0,1,.659,3.782,3.641,3.641,0,0,1,3.652,1.951c.057,0,.113-.013.206-.024,0-.35,0-.694,0-1.038A.785.785,0,0,1,4.756,0H16.615a.786.786,0,0,1,.9.885c.005.344,0,.688,0,1.039.25.031.47.041.682.087a3.737,3.737,0,0,1,3.045,3.132,4.715,4.715,0,0,1-1.971,5.025,3.74,3.74,0,0,1-3.413.576l-.127-.036c-.1.186-.194.374-.3.558a8.3,8.3,0,0,1-2.063,2.553.566.566,0,0,1-.122.094c-.376.152-.419.443-.411.812.024,1.1.009,2.2.009,3.306V18.3H13.1c.507,0,1.014-.007,1.521,0a1.318,1.318,0,0,1,1.362,1.278,17.283,17.283,0,0,1,0,1.761,1.292,1.292,0,0,1-1.072,1.2,1.819,1.819,0,0,1-.35.031q-3.869,0-7.737,0a1.349,1.349,0,0,1-1.4-1.017,1.3,1.3,0,0,1-.045-.326c0-.529-.024-1.059,0-1.587A1.342,1.342,0,0,1,6.816,18.3c.544,0,1.087,0,1.631,0a.406.406,0,0,0,.06-.012,1.588,1.588,0,0,0,.016-.161c0-1.256,0-2.513,0-3.769a.342.342,0,0,0-.125-.246,7.861,7.861,0,0,1-2.433-2.8c-.107-.191-.207-.387-.322-.6m10.4-9.18H5.352c0,.126,0,.236,0,.345A23.3,23.3,0,0,0,5.664,5.64a15.221,15.221,0,0,0,1.719,5.1A6.077,6.077,0,0,0,9.16,12.785a2.447,2.447,0,0,0,2.657.237,4.35,4.35,0,0,0,1.338-1.094,10.584,10.584,0,0,0,1.933-3.7,19.454,19.454,0,0,0,.879-4.816c.039-.622.047-1.246.07-1.887M3.89,3.471A2.191,2.191,0,0,0,1.921,4.594,3.359,3.359,0,0,0,3.53,9.235a2.162,2.162,0,0,0,1.522.059A21.347,21.347,0,0,1,3.89,3.471m13.593.007A21.3,21.3,0,0,1,16.323,9.3,2.182,2.182,0,0,0,17.914,9.2a3.382,3.382,0,0,0,1.76-4.14,2.247,2.247,0,0,0-2.191-1.585m-3.01,16.347H6.9v1.225h7.571Zm-4.425-1.543h1.279V14.8H10.048Z" transform="translate(0 0)" fill="#614e1a"/>
  </g>
</svg>
