<svg id="Groupe_10" data-name="Groupe 10" xmlns="http://www.w3.org/2000/svg" xmlns:xlink="http://www.w3.org/1999/xlink" width="32.713" height="34.578" viewBox="0 0 32.713 34.578">
  <defs>
    <clipPath id="clip-path">
      <rect id="Rectangle_28" data-name="Rectangle 28" width="32.713" height="34.578" fill="silver"/>
    </clipPath>
  </defs>
  <g id="Groupe_7" data-name="Groupe 7" clip-path="url(#clip-path)">
    <path id="Tracé_17" data-name="Tracé 17" d="M8.635,16.393A5.621,5.621,0,0,1,5,16.449,6.936,6.936,0,0,1,.424,11.8,6.915,6.915,0,0,1,1.01,5.792a5.577,5.577,0,0,1,4.583-2.8c.087-.007.174-.02.315-.036,0-.537-.006-1.063,0-1.59A1.2,1.2,0,0,1,7.284,0H25.446a1.2,1.2,0,0,1,1.38,1.355c.008.527,0,1.053,0,1.591.382.048.719.063,1.044.134a5.724,5.724,0,0,1,4.664,4.8,7.221,7.221,0,0,1-3.018,7.7,5.728,5.728,0,0,1-5.226.882L24.1,16.4c-.151.286-.3.573-.453.854a12.7,12.7,0,0,1-3.16,3.91.868.868,0,0,1-.186.144c-.576.234-.642.679-.63,1.244.036,1.687.013,3.376.013,5.063v.41h.382c.776,0,1.553-.01,2.329,0a2.018,2.018,0,0,1,2.087,1.957,26.47,26.47,0,0,1-.005,2.7,1.979,1.979,0,0,1-1.642,1.845,2.786,2.786,0,0,1-.536.048q-5.925,0-11.849,0a2.066,2.066,0,0,1-2.138-1.557,1.993,1.993,0,0,1-.069-.5c-.007-.81-.036-1.622,0-2.43a2.056,2.056,0,0,1,2.2-2.065c.833,0,1.665,0,2.5,0A.622.622,0,0,0,13.03,28a2.432,2.432,0,0,0,.024-.247c0-1.924,0-3.848-.007-5.773a.523.523,0,0,0-.192-.377,12.039,12.039,0,0,1-3.726-4.29c-.165-.293-.318-.593-.494-.923M24.564,2.334H8.2c0,.193,0,.361,0,.529a35.68,35.68,0,0,0,.478,5.776,23.31,23.31,0,0,0,2.633,7.813,9.307,9.307,0,0,0,2.722,3.13,3.748,3.748,0,0,0,4.07.363,6.662,6.662,0,0,0,2.05-1.675A16.209,16.209,0,0,0,23.11,12.6a29.793,29.793,0,0,0,1.346-7.375c.06-.953.073-1.908.108-2.89M5.958,5.316a3.356,3.356,0,0,0-3.016,1.72,5.144,5.144,0,0,0,2.463,7.106,3.312,3.312,0,0,0,2.33.091A32.693,32.693,0,0,1,5.958,5.316m20.818.011A32.621,32.621,0,0,1,25,14.239a3.342,3.342,0,0,0,2.437-.144,5.18,5.18,0,0,0,2.7-6.341,3.441,3.441,0,0,0-3.356-2.427m-4.61,25.036H10.571v1.877H22.166ZM15.388,28h1.958V22.661H15.388Z" transform="translate(0 0)" fill="silver"/>
  </g>
</svg>
