<svg xmlns="http://www.w3.org/2000/svg" xmlns:xlink="http://www.w3.org/1999/xlink" width="31" height="31" viewBox="0 0 31 31">
  <defs>
    <clipPath id="clip-path">
      <rect id="Rectangle_39" data-name="Rectangle 39" width="31" height="31" fill="#6e6e6e"/>
    </clipPath>
  </defs>
  <g id="diplômes" clip-path="url(#clip-path)">
    <path id="Tracé_51" data-name="Tracé 51" d="M76.976,23.234a11.113,11.113,0,1,1-11.112-11.18,11.146,11.146,0,0,1,11.112,11.18" transform="translate(-50.317 -11.078)" fill="#6e6e6e"/>
    <path id="Tracé_52" data-name="Tracé 52" d="M73.806,280.892a13.216,13.216,0,0,0,6.308,2.45c-.044.114-.07.2-.106.274-.614,1.316-1.233,2.63-1.84,3.95a.994.994,0,0,1-1.9.005c-.3-.649-.616-1.289-.935-1.953-.727.184-1.44.358-2.149.546a.988.988,0,0,1-1.194-1.426c.567-1.2,1.125-2.413,1.688-3.62.033-.071.076-.137.126-.227" transform="translate(-66.038 -258.147)" fill="#6e6e6e"/>
    <path id="Tracé_53" data-name="Tracé 53" d="M214.055,285.6c-.326.681-.642,1.323-.943,1.972a.992.992,0,0,1-1.885-.008c-.607-1.319-1.226-2.633-1.839-3.95-.037-.08-.069-.163-.119-.283a13.214,13.214,0,0,0,6.315-2.455c.049.09.094.165.131.244.554,1.188,1.1,2.38,1.663,3.564a1,1,0,0,1-1.22,1.455c-.69-.186-1.384-.356-2.1-.54" transform="translate(-192.323 -258.135)" fill="#6e6e6e"/>
  </g>
</svg>
