<svg xmlns="http://www.w3.org/2000/svg" width="21.501" height="17.592" viewBox="0 0 21.501 17.592">
  <g id="enfant" transform="translate(0 -3.273)">
    <path id="Tracé_10" data-name="Tracé 10" d="M22.875,15.375a1.5,1.5,0,1,1-1.5-1.5A1.5,1.5,0,0,1,22.875,15.375Z" transform="translate(-8 -4.99)" fill="#707070"/>
    <path id="Tracé_11" data-name="Tracé 11" d="M15.375,15.375a1.5,1.5,0,1,1-1.5-1.5A1.5,1.5,0,0,1,15.375,15.375Z" transform="translate(-6 -4.99)" fill="#707070"/>
    <path id="Tracé_12" data-name="Tracé 12" d="M22.942,13.941a3.577,3.577,0,0,0,0-1.29,3.917,3.917,0,0,0-2.746-3.1,8.908,8.908,0,0,0-2.14-2.844A8.787,8.787,0,0,0,4.3,9.553a3.9,3.9,0,0,0-2.746,3.1,3.577,3.577,0,0,0,0,1.29,3.917,3.917,0,0,0,2.746,3.1,8.773,8.773,0,0,0,2.121,2.824,8.74,8.74,0,0,0,11.659,0,8.88,8.88,0,0,0,2.121-2.824,3.907,3.907,0,0,0,2.736-3.1Zm-3.851,1.31a2.786,2.786,0,0,1-.283-.029,7.005,7.005,0,0,1-.84,1.818,6.825,6.825,0,0,1-11.435,0,7.005,7.005,0,0,1-.84-1.818,2.786,2.786,0,0,1-.283.029,1.955,1.955,0,1,1,0-3.909,2.786,2.786,0,0,1,.283.029,7.005,7.005,0,0,1,.84-1.818,6.825,6.825,0,0,1,11.435,0,7.006,7.006,0,0,1,.84,1.818,2.786,2.786,0,0,1,.283-.029,1.955,1.955,0,0,1,0,3.909Zm-11.239,0a4.764,4.764,0,0,0,8.8,0Z" transform="translate(-1.5 -1.227)" fill="#707070"/>
  </g>
</svg>
