<svg xmlns="http://www.w3.org/2000/svg" width="21.075" height="22.213" viewBox="0 0 21.075 22.213">
  <path id="recompense" d="M15.362,14.191a6.087,6.087,0,0,1,1.856.316L9.718,3.259a.39.39,0,0,0-.325-.174H5.006a.181.181,0,0,0-.151.283L12.544,14.9a6.1,6.1,0,0,1,2.817-.711ZM25.718,3.085H21.33A.39.39,0,0,0,21,3.259l-4.718,7.076,2.468,3.7,7.113-10.67a.182.182,0,0,0-.151-.283ZM15.362,15.425A4.936,4.936,0,1,0,20.3,20.362,4.936,4.936,0,0,0,15.362,15.425Zm2.606,5.081a.163.163,0,0,1-.027.257.212.212,0,0,0-.06.283.164.164,0,0,1-.08.246.211.211,0,0,0-.117.264.164.164,0,0,1-.128.223.211.211,0,0,0-.169.233.163.163,0,0,1-.173.191A.212.212,0,0,0,17,22.4a.165.165,0,0,1-.209.152.212.212,0,0,0-.251.144.163.163,0,0,1-.236.1.211.211,0,0,0-.274.089.164.164,0,0,1-.253.053.209.209,0,0,0-.286.03.164.164,0,0,1-.258,0,.21.21,0,0,0-.286-.03.164.164,0,0,1-.253-.053.211.211,0,0,0-.274-.089.164.164,0,0,1-.236-.1.212.212,0,0,0-.251-.144.163.163,0,0,1-.209-.152.211.211,0,0,0-.213-.194.163.163,0,0,1-.173-.191.211.211,0,0,0-.169-.233.163.163,0,0,1-.128-.223.211.211,0,0,0-.117-.264.165.165,0,0,1-.08-.246.211.211,0,0,0-.06-.283.164.164,0,0,1-.027-.257.21.21,0,0,0,0-.289.163.163,0,0,1,.027-.257.212.212,0,0,0,.06-.283.164.164,0,0,1,.08-.246.211.211,0,0,0,.117-.264.164.164,0,0,1,.128-.223.211.211,0,0,0,.169-.233.163.163,0,0,1,.173-.191.212.212,0,0,0,.215-.193.165.165,0,0,1,.209-.152.212.212,0,0,0,.251-.144.163.163,0,0,1,.236-.1.211.211,0,0,0,.274-.089.164.164,0,0,1,.253-.053.209.209,0,0,0,.286-.03.164.164,0,0,1,.258,0,.21.21,0,0,0,.286.03.164.164,0,0,1,.253.053.211.211,0,0,0,.274.089.164.164,0,0,1,.236.1.212.212,0,0,0,.25.144.163.163,0,0,1,.209.152.21.21,0,0,0,.215.193.163.163,0,0,1,.173.191.211.211,0,0,0,.169.233.163.163,0,0,1,.128.223.211.211,0,0,0,.117.264.165.165,0,0,1,.08.246.211.211,0,0,0,.06.283.164.164,0,0,1,.027.257.213.213,0,0,0,0,.29Z" transform="translate(-4.824 -3.085)" fill="#707070"/>
</svg>
